<?xml version="1.0" encoding="utf-8"?>
<!-- Generator: Adobe Illustrator 23.0.4, SVG Export Plug-In . SVG Version: 6.00 Build 0)  -->
<svg version="1.1" id="Layer_1" xmlns="http://www.w3.org/2000/svg" xmlns:xlink="http://www.w3.org/1999/xlink" x="0px" y="0px"
	 viewBox="0 0 200 200" style="enable-background:new 0 0 200 200;" xml:space="preserve">
<style type="text/css">
	.st0{fill:#FF0000;}
	.st1{fill:#FFFFFF;}
</style>
<circle cx="100" cy="100" r="100"/>
<path class="st0" d="M61.6,129.6c-6.8-6.8-6.8-17.9,0-24.8c6.8-6.8,17.9-6.8,24.8,0c6.8,6.8,6.8,17.9,0,24.8
	C79.6,136.4,68.5,136.4,61.6,129.6z M80.1,111.2c-3.3-3.3-8.8-3.3-12.1,0c-3.3,3.3-3.3,8.8,0,12.1c3.3,3.3,8.8,3.3,12.1,0
	C83.4,120,83.4,114.5,80.1,111.2z"/>
<g>
	<path class="st0" d="M73.7,134.3l-2.9,0.9c-0.2,0-0.9,0.3-2.2,0.9c-1.3,0.6-1.9,1.2-1.9,1.8c0,1.1,0.9,1.6,2.8,1.6
		c0.8,0,2.3-0.2,4.3-0.6c2-0.4,3.7-0.6,5.1-0.6c10,0,15,4,15,12c0,4.4-2,7.9-6,10.5s-8.8,3.8-14.5,3.8c-6.7,0-12.8-2-18.3-6l6.5-8
		c3.6,3.3,7.6,4.9,12,4.9c3,0,5.4-0.4,7.3-1.3c1.9-0.9,2.9-2.1,2.9-3.6c0-2.6-2.1-3.9-6.4-3.9c-1.2,0-2.9,0.1-5.1,0.4
		c-2.3,0.3-4,0.4-5.1,0.4c-7.1,0-10.6-2.5-10.6-7.6c0-1.5,0.6-2.9,1.8-4.3c1.2-1.4,3.2-3.4,7.2-4.4"/>
</g>
<path class="st1" d="M147.3,66.6c-8.1-8.1-21.4-8.1-29.5,0L88.3,96.1l7.4,7.4L125.1,74c4.1-4.1,10.7-4.1,14.8,0
	c4.1,4.1,4.1,10.7,0,14.8l-3.4,3.4l-3.5,18.3l14.3-14.3C155.4,88,155.4,74.8,147.3,66.6z"/>
<path class="st1" d="M125.1,44.5c-8.1-8.1-21.4-8.1-29.5,0L81.3,58.8l18.3-3.5l3.4-3.4c4.1-4.1,10.7-4.1,14.8,0
	c4.1,4.1,4.1,10.7,0,14.8L88.3,96.1l7.4,7.4L125.1,74C133.3,65.9,133.3,52.6,125.1,44.5z"/>
<rect x="82.1" y="97.9" transform="matrix(0.7071 0.7071 -0.7071 0.7071 99.4374 -31.132)" class="st0" width="10.5" height="13.1"/>
</svg>
